<svg id="visual" viewBox="0 0 900 600" width="900" height="600" xmlns="http://www.w3.org/2000/svg" xmlns:xlink="http://www.w3.org/1999/xlink" version="1.1"><rect x="0" y="0" width="900" height="600" fill="#001220"></rect><defs><linearGradient id="grad1_0" x1="33.3%" y1="0%" x2="100%" y2="100%"><stop offset="20%" stop-color="#001220" stop-opacity="1"></stop><stop offset="80%" stop-color="#001220" stop-opacity="1"></stop></linearGradient></defs><defs><linearGradient id="grad2_0" x1="0%" y1="0%" x2="66.7%" y2="100%"><stop offset="20%" stop-color="#001220" stop-opacity="1"></stop><stop offset="80%" stop-color="#001220" stop-opacity="1"></stop></linearGradient></defs><g transform="translate(900, 0)"><path d="M0 351.5C-38.9 351.6 -77.8 351.6 -108.6 334.3C-139.5 317.1 -162.4 282.6 -184.6 254C-206.8 225.4 -228.4 202.7 -243.5 176.9C-258.7 151.2 -267.4 122.4 -284.4 92.4C-301.3 62.4 -326.4 31.2 -351.5 0L0 0Z" fill="#FBAE3C"></path></g><g transform="translate(0, 600)"><path d="M0 -351.5C32 -330.1 64.1 -308.7 96.1 -295.8C128.1 -282.8 160.2 -278.3 193.4 -266.2C226.6 -254.1 260.9 -234.4 284.4 -206.6C307.9 -178.9 320.6 -143 330 -107.2C339.4 -71.4 345.5 -35.7 351.5 0L0 0Z" fill="#FBAE3C"></path></g></svg>